<svg width="482" height="288" viewBox="0 0 482 288" fill="none" xmlns="http://www.w3.org/2000/svg">
<path d="M178.47 287.701C173.201 287.738 167.995 286.553 163.264 284.239C143.025 274.283 139.549 247.448 139.279 232.355C139.215 228.736 139.238 225.005 139.279 221.397C139.391 205.291 139.508 188.635 131.735 174.772C120.338 154.455 97.8278 147.609 73.9903 140.358C56.9634 135.193 39.4141 129.816 25.8044 119.175C4.6148 102.554 -4.62668 73.0125 3.32896 47.3192C11.2846 21.626 35.6212 2.43367 62.5177 0.635667C64.0677 0.530247 65.6471 0.477539 67.2147 0.477539C93.577 0.477539 117.385 15.4179 140.412 29.8605C163.199 44.1566 186.796 58.9389 212.553 58.9389C214.191 58.9389 215.841 58.8803 217.462 58.7632C240.683 57.0882 260.704 43.2957 280.068 29.9542C285.939 25.8955 292.051 21.6963 298.134 17.9129C314.879 7.49384 333.685 1.51417 349.725 1.51417C363.934 1.51417 375.512 5.98867 384.131 14.8147C397.183 28.1738 399.021 47.3427 400.8 65.8791C401.886 77.2176 403.013 88.9427 406.642 99.4437C413.253 118.566 428.107 133.453 442.457 147.849C446.895 152.3 451.487 156.904 455.767 161.554C478.9 186.737 487.29 214.153 478.213 234.873C468.596 256.818 443.813 264.637 423.833 264.637C419.788 264.639 415.75 264.324 411.756 263.694C393.085 260.731 375.676 252.479 358.843 244.496C352.737 241.603 346.425 238.639 340.155 235.922C322.353 228.308 306.213 224.408 292.18 224.408C282.839 224.408 274.196 226.118 266.493 229.491C253.253 235.283 242.826 245.954 232.745 256.274C228.635 260.461 224.419 264.795 220.045 268.76C206.753 280.796 191.599 287.701 178.47 287.701ZM67.1913 2.28725C65.6706 2.28725 64.1323 2.33996 62.6234 2.43953C36.8777 4.16139 12.6585 23.2659 5.03753 47.8581C-2.58344 72.4503 6.61691 101.851 26.9023 117.763C40.242 128.223 57.6562 133.518 74.4952 138.637C98.685 145.993 121.542 152.944 133.291 173.894C141.299 188.172 141.182 205.069 141.064 221.415C141.064 225.011 141.011 228.73 141.064 232.326C141.328 247.009 144.657 273.071 164.039 282.629C168.522 284.819 173.455 285.94 178.447 285.903C191.135 285.903 205.842 279.168 218.795 267.431C223.128 263.501 227.343 259.19 231.418 255.026C241.622 244.584 252.179 233.784 265.736 227.845C273.668 224.372 282.557 222.61 292.157 222.61C306.436 222.61 322.817 226.534 340.842 234.27C347.142 236.97 353.471 239.975 359.589 242.874C376.305 250.798 393.59 258.997 412.008 261.92C415.909 262.535 419.854 262.842 423.803 262.839C448.199 262.839 468.889 251.577 476.528 234.141C489.545 204.436 462.889 172.002 454.405 162.766C450.154 158.139 445.598 153.548 441.147 149.114C426.639 134.572 411.632 119.538 404.886 100.023C401.187 89.3233 400.054 77.487 398.956 66.0548C397.124 46.9913 395.398 28.982 382.786 16.0797C374.52 7.61683 363.376 3.32388 349.672 3.32388C333.955 3.32388 315.501 9.18056 299.038 19.4415C292.99 23.2014 286.92 27.389 281.042 31.4359C261.479 44.9063 241.252 58.851 217.538 60.5612C215.871 60.6783 214.174 60.7428 212.495 60.7428C186.185 60.7428 162.395 45.8199 139.391 31.3891C116.61 17.0812 93.0251 2.28725 67.1913 2.28725Z" fill="#6A1AB7"/>
</svg>
