<svg width="10" height="17" viewBox="0 0 10 17" fill="none" xmlns="http://www.w3.org/2000/svg">
<g id="icon arrow-next" clip-path="url(#clip0_2685_983)">
<path id="@none" fill-rule="evenodd" clip-rule="evenodd" d="M0.680771 1.00645C0.737928 0.949153 0.805828 0.90369 0.880583 0.87267C0.955337 0.841651 1.03548 0.825684 1.11641 0.825684C1.19735 0.825684 1.27749 0.841651 1.35224 0.87267C1.427 0.90369 1.4949 0.949153 1.55205 1.00645L8.9358 8.3902C8.9931 8.44736 9.03857 8.51526 9.06959 8.59002C9.10061 8.66477 9.11657 8.74491 9.11657 8.82584C9.11657 8.90678 9.10061 8.98692 9.06959 9.06167C9.03857 9.13643 8.9931 9.20433 8.9358 9.26149L1.55205 16.6452C1.43651 16.7608 1.27981 16.8257 1.11641 16.8257C0.953015 16.8257 0.79631 16.7608 0.680771 16.6452C0.565232 16.5297 0.500322 16.373 0.500322 16.2096C0.500322 16.0462 0.565232 15.8895 0.680771 15.774L7.63011 8.82584L0.680771 1.87774C0.623469 1.82058 0.578006 1.75268 0.546986 1.67793C0.515967 1.60317 0.5 1.52303 0.5 1.4421C0.5 1.36116 0.515967 1.28102 0.546986 1.20627C0.578006 1.13151 0.623469 1.06361 0.680771 1.00645Z" fill="#FF6551"/>
</g>
<defs>
<clipPath id="clip0_2685_983">
<rect width="9" height="16" fill="white" transform="translate(0.5 0.825684)"/>
</clipPath>
</defs>
</svg>
